<svg xmlns="http://www.w3.org/2000/svg" viewBox="0 0 256 256" focusable="false" color="var(--token-e40295d9-3640-4220-a369-52560d1c98f0, rgb(116, 116, 116))" style="user-select: none; width: 100%; height: 100%; display: inline-block; fill: var(--token-e40295d9-3640-4220-a369-52560d1c98f0, rgb(116, 116, 116)); color: var(--token-e40295d9-3640-4220-a369-52560d1c98f0, rgb(116, 116, 116)); flex-shrink: 0;"><g color="var(--token-e40295d9-3640-4220-a369-52560d1c98f0, rgb(116, 116, 116))" weight="regular"><path d="M240,184h-8V57.9l9.67-2.08a8,8,0,1,0-3.35-15.64l-224,48A8,8,0,0,0,16,104a8.16,8.16,0,0,0,1.69-.18L24,102.47V184H16a8,8,0,0,0,0,16H240a8,8,0,0,0,0-16ZM40,99,216,61.33V184H192V128a8,8,0,0,0-8-8H72a8,8,0,0,0-8,8v56H40Zm136,53H80V136h96ZM80,168h96v16H80Z"></path></g></svg>