<svg xmlns="http://www.w3.org/2000/svg" width="126" height="41" fill="none"><g clip-path="url(#a)"><path fill="#000" d="M39.167.5c.46 0 .833.373.833.833v38.334c0 .46-.373.833-.833.833H.833A.833.833 0 0 1 0 39.667V1.333C0 .873.373.5.833.5h38.334ZM10.25 30.417l6.5 6.416h6.583l6.5-6.416H10.25Zm6.5-26.084L3.667 17.417v6.5l6.583 6.5v-10.5l9.833-9.334 9.75 9.334v10.5l6.584-6.5v-6.5L23.333 4.333H16.75Z"/></g><path fill="#000" d="M125.521 26.361c-1.005.2-2 .278-2.985.236-.974-.032-1.843-.225-2.608-.582a3.753 3.753 0 0 1-1.744-1.696 5.033 5.033 0 0 1-.55-2.027 77.974 77.974 0 0 1-.031-2.341V4.68h2.796v15.145c0 .692.006 1.283.016 1.776.021.492.131.916.33 1.272.377.67.974 1.063 1.791 1.179.828.115 1.823.083 2.985-.095v2.404Zm-11.359-14.658v-2.31h11.359v2.31h-11.359Zm-5.625-5.313V3.5h2.797v2.89h-2.797Zm0 19.97V9.392h2.797V26.36h-2.797Z"/><path fill="#747474" d="M96.012 26.832c-1.581 0-2.938-.393-4.069-1.179-1.131-.796-2.006-1.87-2.623-3.22-.608-1.352-.912-2.875-.912-4.572s.304-3.221.912-4.572c.617-1.351 1.492-2.415 2.623-3.19 1.131-.785 2.483-1.178 4.054-1.178 1.602 0 2.948.388 4.037 1.163 1.09.775 1.912 1.838 2.467 3.189.566 1.351.849 2.88.849 4.588 0 1.686-.283 3.21-.849 4.572-.555 1.35-1.377 2.424-2.467 3.22-1.089.786-2.43 1.179-4.022 1.179Zm.346-2.561c1.142 0 2.08-.273 2.812-.817.734-.555 1.273-1.315 1.619-2.278.356-.974.534-2.08.534-3.315 0-1.257-.178-2.362-.534-3.315-.346-.964-.88-1.713-1.603-2.247-.723-.545-1.64-.817-2.75-.817-1.152 0-2.105.283-2.859.848-.743.566-1.299 1.33-1.665 2.294-.356.964-.534 2.043-.534 3.237 0 1.204.183 2.293.55 3.268.366.963.916 1.728 1.65 2.293.743.566 1.67.849 2.78.849Zm4.965 2.09V13.87h-.314V3.736h2.812V26.36h-2.498Zm-18.731 0v-8.5c0-.806-.073-1.581-.22-2.325a5.829 5.829 0 0 0-.739-1.995 3.816 3.816 0 0 0-1.414-1.414c-.586-.346-1.33-.519-2.23-.519-.702 0-1.341.12-1.917.362a3.749 3.749 0 0 0-1.462 1.068c-.408.482-.728 1.09-.958 1.822-.22.723-.33 1.577-.33 2.562l-1.838-.566c0-1.645.293-3.053.88-4.227.597-1.183 1.43-2.089 2.498-2.717 1.079-.64 2.346-.959 3.802-.959 1.1 0 2.037.173 2.812.519.775.345 1.42.806 1.933 1.382a6.53 6.53 0 0 1 1.21 1.917 9.32 9.32 0 0 1 .612 2.152c.126.723.189 1.41.189 2.059v9.38h-2.828Zm-12.098 0V9.393h2.514v4.54h.314v12.428h-2.828ZM63 6.39V3.5h2.797v2.89H63Zm0 19.97V9.392h2.797V26.36H63Zm-16.334 0V3.736h13.197v2.797h-10.4v7.117h8.515v2.797h-8.515v9.913h-2.797ZM121 37.468v-7.156h4.522v.84h-3.637v2.241h3.041v.84h-3.041v2.395h3.637v.84H121Zm-6.105 0v-6.316h-2.44v-.84h5.764v.84h-2.44v6.316h-.884Zm-10.151 0 2.395-7.156h1.233l2.395 7.156h-.92l-2.241-6.639h.279l-2.222 6.64h-.919Zm1.153-1.675v-.83h3.717v.83h-3.717Zm-6.565 1.675v-6.316h-2.44v-.84h5.765v.84h-2.44v6.316h-.885Zm-7.552.147a3.49 3.49 0 0 1-1.372-.259 2.62 2.62 0 0 1-1.004-.735 2.467 2.467 0 0 1-.511-1.138l.914-.144c.116.45.356.803.72 1.058.368.252.8.378 1.297.378.322 0 .612-.05.87-.149.262-.103.469-.248.621-.437.153-.19.229-.413.229-.671a.903.903 0 0 0-.085-.408.815.815 0 0 0-.223-.293 1.323 1.323 0 0 0-.318-.209 2.39 2.39 0 0 0-.373-.139l-1.824-.541a3.92 3.92 0 0 1-.576-.224 2.102 2.102 0 0 1-.497-.343 1.564 1.564 0 0 1-.348-.497 1.703 1.703 0 0 1-.13-.69c0-.424.11-.785.329-1.084a2.1 2.1 0 0 1 .9-.69 3.204 3.204 0 0 1 1.276-.234c.48.003.91.09 1.287.258.381.166.696.405.944.716.252.311.421.684.507 1.118l-.939.164a1.57 1.57 0 0 0-.333-.75 1.653 1.653 0 0 0-.636-.487 2.06 2.06 0 0 0-.84-.18 2.012 2.012 0 0 0-.79.14 1.37 1.37 0 0 0-.561.402.895.895 0 0 0-.209.587c0 .218.063.396.189.532.126.132.28.238.462.318.186.076.366.139.542.188l1.361.393c.156.043.335.103.537.179.205.076.404.184.596.323a1.6 1.6 0 0 1 .477.547c.126.225.189.51.189.854 0 .345-.07.651-.209.92a1.903 1.903 0 0 1-.571.675c-.245.18-.53.315-.855.408a3.66 3.66 0 0 1-1.043.144Zm-10.038-.147v-7.156h4.522v.84h-3.637v2.241h3.04v.84h-3.04v2.395h3.637v.84h-4.522Zm-10.515 0v-7.156h.884v6.316h3.32v.84h-4.204Zm-8.999 0 2.396-7.156h1.232l2.395 7.156h-.92l-2.24-6.639h.278l-2.221 6.64h-.92Zm1.153-1.675v-.83h3.717v.83h-3.717Zm-8.359 1.675v-7.156h4.521v.84h-3.637v2.241h3.041v.84h-3.041v2.395h3.637v.84h-4.521Zm-8.356 0v-7.156h2.827a4.155 4.155 0 0 1 .527.04c.388.06.712.192.974.398.265.205.464.465.596.78.133.311.2.657.2 1.038 0 .554-.145 1.034-.433 1.442-.288.404-.71.657-1.267.76l-.338.054H47.55v2.644h-.884Zm4.259 0-1.412-2.912.875-.268 1.55 3.18h-1.013Zm-3.374-3.483h1.913c.063 0 .134-.004.213-.01.083-.007.161-.019.234-.035.228-.053.414-.15.556-.288.146-.143.252-.308.318-.497a1.785 1.785 0 0 0 0-1.168 1.272 1.272 0 0 0-.318-.502 1.095 1.095 0 0 0-.556-.288 1.043 1.043 0 0 0-.234-.035c-.08-.006-.15-.01-.213-.01H47.55v2.833Z"/><defs><clipPath id="a"><path fill="#fff" d="M0 .5h40v40H0z"/></clipPath></defs></svg>